<svg width="22" height="24" viewBox="0 0 22 24" fill="none" xmlns="http://www.w3.org/2000/svg">
<path d="M13.5502 1.37753C13.6358 1.23798 13.6853 1.07592 13.6853 0.900348C13.6853 0.405157 13.2801 0 12.7849 0H9.3186C8.82341 0 8.41825 0.405157 8.41825 0.900348C8.41825 1.06691 8.46327 1.21997 8.5443 1.35502C6.54553 1.8097 4.70882 2.81809 3.22325 4.30366C1.14344 6.38347 0 9.14303 0 12.0827C0 15.0223 1.14344 17.7864 3.22325 19.8662C5.29855 21.9415 8.05811 23.0939 10.9977 23.0939C13.9374 23.0939 16.697 21.9415 18.7768 19.8662C20.8566 17.7864 22 15.0178 22 12.0827C22 9.14303 20.8566 6.38347 18.7768 4.30366C17.3137 2.8406 15.513 1.84121 13.5502 1.37753ZM17.5028 18.5877C15.7651 20.3254 13.4557 21.2842 10.9977 21.2842C5.92429 21.2842 1.79619 17.1561 1.79619 12.0827C1.79619 9.62472 2.75506 7.31533 4.49274 5.57765C6.23041 3.83548 8.5398 2.88111 10.9977 2.88111C16.0712 2.88111 20.1993 7.00921 20.1993 12.0827C20.1993 14.5361 19.2404 16.85 17.5028 18.5877Z" fill="#FFC300"/>
<path d="M16.6789 12.6499H11.6145V7.67544C11.6145 7.18475 11.2318 6.76609 10.7456 6.75259C10.2324 6.73458 9.81378 7.14424 9.81378 7.65293V13.6853C9.81378 14.1084 10.1559 14.4506 10.5791 14.4506H16.7014C17.2101 14.4506 17.6198 14.0319 17.6018 13.5187C17.5838 13.0325 17.1651 12.6499 16.6789 12.6499Z" fill="#FFC400"/>
</svg>
