<svg width="36" height="35" viewBox="0 0 36 35" fill="none" xmlns="http://www.w3.org/2000/svg">
<path d="M15.6584 32.2284H8.0043C5.52416 32.2201 3.51329 30.3864 3.49507 28.1166V14.1822C3.49993 13.4224 3.87144 12.7033 4.51006 12.2177L5.85784 11.304C6.34988 10.8242 6.39992 10.0921 5.97703 9.55987C5.55414 9.02769 4.7777 8.84568 4.12736 9.12627L2.7463 10.0705C1.35319 11.057 0.526474 12.5703 0.5 14.1822V28.1318C0.509151 31.9215 3.86359 34.9916 8.0043 35H15.6584C16.4854 35 17.1559 34.3864 17.1559 33.6294C17.1559 32.8725 16.4854 32.2588 15.6584 32.2588V32.2284Z" fill="white"/>
<path d="M35.5 13.8969C35.4825 12.2968 34.6827 10.788 33.3203 9.78514L21.8225 1.39408C19.2959 -0.464692 15.6967 -0.464692 13.1701 1.39408L9.52613 3.81546C8.84151 4.26542 8.68506 5.13815 9.17671 5.76474C9.66835 6.39133 10.6219 6.53452 11.3065 6.08455L15.0004 3.55657C16.4503 2.46411 18.5424 2.46411 19.9922 3.55657L31.4899 11.9476C32.1517 12.4277 32.5427 13.1546 32.5549 13.9274V27.877C32.5549 30.1478 30.5435 31.9887 28.0623 31.9887H24.6512C24.302 31.9887 24.0189 31.7296 24.0189 31.41V25.1205C24.0189 23.1163 22.2486 21.4892 20.0588 21.4809H15.067C14.0123 21.4809 13.0008 21.8643 12.255 22.5469C11.5092 23.2295 11.0902 24.1552 11.0902 25.1205V27.5267C11.0902 28.2837 11.7607 28.8973 12.5878 28.8973C13.4148 28.8973 14.0853 28.2837 14.0853 27.5267V25.1205C14.0808 24.8837 14.1805 24.6551 14.362 24.4861C14.5435 24.3172 14.7915 24.222 15.0504 24.222H20.0421C20.5751 24.222 21.0072 24.6175 21.0072 25.1053V31.41C21.0164 33.246 22.6452 34.7299 24.6512 34.7299H27.9791C32.1236 34.7299 35.4834 31.6549 35.4834 27.8617L35.5 13.8969Z" fill="white"/>
</svg>
