<svg width="36" height="35" viewBox="0 0 36 35" fill="none" xmlns="http://www.w3.org/2000/svg">
<path d="M33.3794 10.6379C33.2856 9.72441 32.7764 8.8734 31.9529 8.2542C31.1295 7.63499 30.0523 7.29298 28.9357 7.29622H26.8916C26.8916 5.36114 25.9552 3.50532 24.2885 2.13701C22.6218 0.768707 20.3612 0 18.0041 0C15.647 0 13.3864 0.768707 11.7197 2.13701C10.053 3.50532 9.11662 5.36114 9.11662 7.29622H7.05472C5.93808 7.29298 4.86088 7.63499 4.03746 8.2542C3.21405 8.8734 2.70478 9.72441 2.61098 10.6379L0.51354 31.0673C0.465653 31.5698 0.545102 32.0749 0.746877 32.5509C0.948653 33.0269 1.26838 33.4634 1.68589 33.8329C2.1034 34.2024 2.60964 34.4969 3.17269 34.6977C3.73573 34.8986 4.34337 35.0015 4.95728 35H31.042C31.6567 35.0016 32.2652 34.8985 32.8289 34.6972C33.3926 34.4959 33.8993 34.2007 34.3169 33.8304C34.7346 33.4601 35.0541 33.0227 35.2553 32.5459C35.4565 32.069 35.5349 31.5631 35.4858 31.06L33.3794 10.6379ZM18.0041 1.45924C19.8898 1.45924 21.6982 2.07421 23.0316 3.16886C24.365 4.2635 25.1141 5.74816 25.1141 7.29622H10.8941C10.8941 5.74816 11.6432 4.2635 12.9766 3.16886C14.31 2.07421 16.1184 1.45924 18.0041 1.45924ZM31.042 33.5626H4.96617C4.59814 33.5635 4.23388 33.5018 3.89632 33.3815C3.55875 33.2612 3.25518 33.0847 3.00473 32.8634C2.75427 32.642 2.56236 32.3805 2.44106 32.0952C2.31976 31.81 2.27171 31.5072 2.29992 31.2059L4.38848 10.7765C4.44433 10.2282 4.74971 9.71721 5.2438 9.34538C5.7379 8.97355 6.38445 8.76815 7.05472 8.77006H9.11662V13.1478H8.22787C7.99216 13.1478 7.7661 13.2247 7.59943 13.3615C7.43276 13.4983 7.33912 13.6839 7.33912 13.8774C7.33912 14.0709 7.43276 14.2565 7.59943 14.3933C7.7661 14.5302 7.99216 14.607 8.22787 14.607H11.7829C12.0186 14.607 12.2446 14.5302 12.4113 14.3933C12.578 14.2565 12.6716 14.0709 12.6716 13.8774C12.6716 13.6839 12.578 13.4983 12.4113 13.3615C12.2446 13.2247 12.0186 13.1478 11.7829 13.1478H10.8941V8.75547H25.1141V13.1332H24.2253C23.9896 13.1332 23.7636 13.2101 23.5969 13.3469C23.4302 13.4837 23.3366 13.6693 23.3366 13.8628C23.3366 14.0563 23.4302 14.2419 23.5969 14.3787C23.7636 14.5156 23.9896 14.5924 24.2253 14.5924H27.7803C28.016 14.5924 28.2421 14.5156 28.4088 14.3787C28.5754 14.2419 28.6691 14.0563 28.6691 13.8628C28.6691 13.6693 28.5754 13.4837 28.4088 13.3469C28.2421 13.2101 28.016 13.1332 27.7803 13.1332H26.8916V8.75547H28.9535C29.6237 8.75355 30.2703 8.95896 30.7644 9.33079C31.2585 9.70261 31.5639 10.2136 31.6197 10.7619L33.7083 31.1914C33.7391 31.4938 33.6929 31.7981 33.5728 32.0851C33.4527 32.3721 33.2612 32.6354 33.0105 32.8584C32.7597 33.0814 32.4553 33.2592 32.1164 33.3804C31.7775 33.5016 31.4117 33.5637 31.042 33.5626Z" fill="black"/>
</svg>
