<svg width="21" height="21" viewBox="0 0 21 21" fill="none" xmlns="http://www.w3.org/2000/svg">
<path fill-rule="evenodd" clip-rule="evenodd" d="M1.28049 10.5C1.28049 5.40819 5.40819 1.28049 10.5 1.28049C15.5918 1.28049 19.7195 5.40819 19.7195 10.5C19.7195 15.5918 15.5918 19.7195 10.5 19.7195C5.40819 19.7195 1.28049 15.5918 1.28049 10.5ZM10.5 0C4.701 0 0 4.701 0 10.5C0 16.299 4.701 21 10.5 21C16.299 21 21 16.299 21 10.5C21 4.701 16.299 0 10.5 0ZM15.9466 8.2637C16.1967 8.01368 16.1967 7.60827 15.9466 7.35825C15.6966 7.10822 15.2912 7.10822 15.0412 7.35825L9.49115 12.9083C9.34121 13.0582 9.09789 13.0583 8.94777 12.9082L6.47102 10.4314C6.22099 10.1814 5.81559 10.1814 5.56556 10.4314C5.31554 10.6814 5.31554 11.0868 5.56556 11.3369L8.04233 13.8136C8.69234 14.4636 9.74643 14.4639 10.3966 13.8137L15.9466 8.2637Z" fill="url(#paint0_linear_18_1074)"/>
<defs>
<linearGradient id="paint0_linear_18_1074" x1="10.5" y1="0" x2="10.5" y2="21" gradientUnits="userSpaceOnUse">
<stop stop-color="#34A853"/>
<stop offset="1" stop-color="#4285F4"/>
</linearGradient>
</defs>
</svg>
