<svg width="36" height="35" viewBox="0 0 36 35" fill="none" xmlns="http://www.w3.org/2000/svg">
<path d="M34.6592 8.29787C33.9585 7.34043 32.995 6.70213 31.9439 6.70213H18.4555C18.0175 6.70213 17.5796 7.12766 17.5796 7.76596C17.5796 8.40425 18.0175 8.82979 18.4555 8.82979H31.9439C32.4695 8.82979 32.995 9.14894 33.3453 9.57447C33.6957 10.1064 33.8709 10.7447 33.6957 11.383L32.9074 16.7021H23.2728C22.8348 16.7021 22.3969 17.1277 22.3969 17.766C22.3969 18.4043 22.8348 18.8298 23.2728 18.8298H32.6446L31.8564 23.9362C31.7688 24.6809 31.1557 25.2128 30.5425 25.2128H13.7257C13.1126 25.2128 12.5871 24.6809 12.4119 23.9362L8.996 0.851064C8.90841 0.319149 8.55806 0 8.12012 0H1.37588C0.937938 0 0.5 0.425532 0.5 1.06383C0.5 1.70213 0.937938 2.12766 1.37588 2.12766H7.41942L10.7477 24.4681C10.9229 25.9574 11.7988 27.0213 12.9374 27.4468C12.4995 28.1915 12.1491 29.1489 12.1491 30.2128C12.1491 32.8723 13.9009 35 16.0906 35C18.2803 35 20.032 32.8723 20.032 30.2128C20.032 29.2553 19.7693 28.2979 19.3313 27.5532H24.6742C24.2362 28.2979 23.9735 29.2553 23.9735 30.2128C23.9735 32.8723 25.7252 35 27.9149 35C30.1046 35 31.8564 32.8723 31.8564 30.2128C31.8564 29.1489 31.5936 28.1915 31.1557 27.4468C32.2943 27.1277 33.2578 25.9574 33.5205 24.4681L35.4474 11.9149C35.6226 10.6383 35.3599 9.3617 34.6592 8.29787ZM18.2803 30.1064C18.2803 31.5957 17.3168 32.766 16.0906 32.766C14.8644 32.766 13.9009 31.5957 13.9009 30.1064C13.9009 28.617 14.8644 27.4468 16.0906 27.4468C17.3168 27.4468 18.2803 28.617 18.2803 30.1064ZM28.0025 32.766C26.7763 32.766 25.8128 31.5957 25.8128 30.1064C25.8128 28.617 26.7763 27.4468 28.0025 27.4468C29.2287 27.4468 30.1922 28.617 30.1922 30.1064C30.1922 31.5957 29.2287 32.766 28.0025 32.766Z" fill="black"/>
</svg>
